<?xml version="1.0" encoding="utf-8"?>
<!-- Generator: Adobe Illustrator 25.0.0, SVG Export Plug-In . SVG Version: 6.00 Build 0)  -->
<svg version="1.1" id="Layer_1" xmlns="http://www.w3.org/2000/svg" xmlns:xlink="http://www.w3.org/1999/xlink" x="0px" y="0px"
	 viewBox="0 0 356 225" style="enable-background:new 0 0 356 225;" xml:space="preserve">
<style type="text/css">
	.st0{fill:#04A8FF;}
	.st1{font-family:'Montserrat-Bold';}
	.st2{font-size:30.0981px;}
	.st3{font-family:'Montserrat-Regular';}
</style>
<g>
	<g>
		<g>
			<path class="st0" d="M57.6,122.8c1.41,2.21,1.41,5.04,0,7.25l-6.13,9.63c-2.65,4.16-8.73,4.16-11.38,0l-30.01-47.1
				c-2.86-4.49,0.36-10.38,5.69-10.38h12.27c2.31,0,4.45,1.18,5.69,3.12L57.6,122.8z"/>
			<path class="st0" d="M113.73,92.57l-30.01,47.1c-2.65,4.16-8.73,4.16-11.38,0l-8.44-13.25L42.32,92.57
				c-2.86-4.49,0.36-10.37,5.69-10.37h60.02C113.36,82.2,116.59,88.08,113.73,92.57z"/>
		</g>
	</g>
	<g>
		<path class="st0" d="M146.61,103.58l-23.45,36.82c-0.95,1.49-2.59,2.39-4.35,2.39h-11.14l-2.61-0.34
			c-4.87-0.63-7.43-6.12-4.79-10.26l29.85-46.88c2.84-4.47,9.5-4.03,11.74,0.77l5.16,11.07C148,99.22,147.85,101.65,146.61,103.58z"
			/>
		<path class="st0" d="M154.66,138.89l-11.3-17.73c-1-1.57-3.29-1.57-4.29,0l-3.18,4.99l-8.12,12.74c-1.08,1.69,0.14,3.91,2.14,3.91
			h22.6C154.53,142.8,155.74,140.59,154.66,138.89z"/>
	</g>
	<g>
		<text transform="matrix(1 0 0 1 170.4463 121.6179)"><tspan x="0" y="0" class="st0 st1 st2">west</tspan><tspan x="93" y="0" class="st0 st3 st2">lead</tspan></text>
	</g>
</g>
</svg>
